# xmcd
#
# Track frame offsets:
#	150
#	17619
#	33870
#	49542
#	68010
#	78011
#	86930
#	100025
#	120133
#	137494
#	149582
#	162121
#
# Disc length: 2388 seconds
#
# Revision: 0
# Processed by: cddbd v1.5.2PL0 Copyright (c) Steve Scherf et al.
# Submitted via: EasyCDDAExtractor 15.2.1.1
#
DISCID=8709520c
DTITLE='tis The Season - We Wish You A Merry Christmas
DYEAR=2006
DGENRE=Christmas
TTITLE0=Deck The Halls
TTITLE1=All I Want For Christmas (Is My Two Front Teeth)
TTITLE2=Jolly Old St. Nicholas
TTITLE3=Santa Claus Is Coming To Town
TTITLE4=Rudolph The Red Nosed Reindeer
TTITLE5=Up On The Housetop
TTITLE6=Jingle Bells
TTITLE7=Little Drummer Boy
TTITLE8=O Christmas Tree
TTITLE9=Frosty The Snowman
TTITLE10=I Saw Mommy Kissing Santa Claus
TTITLE11=We Wish You A Merry Christmas
EXTD=
EXTT0=
EXTT1=
EXTT2=
EXTT3=
EXTT4=
EXTT5=
EXTT6=
EXTT7=
EXTT8=
EXTT9=
EXTT10=
EXTT11=
PLAYORDER=
